# xmcd
#
# Track frame offsets: 
#        150
#        11108
#        25850
#        43670
#        60683
#        82185
#        102916
#        118639
#        130528
#        143893
#        157832
#        174128
#        185737
#        198376
#        210439
#        226621
#        238430
#        256558
#
# Disc length: 3582 seconds
#
# Revision: 1
# Processed by: cddbd v1.5.2PL0 Copyright (c) Steve Scherf et al.
# Submitted via: ExactAudioCopy v0.99pb5
#
DISCID=e90dfc12
DTITLE=Chet Baker - Cool Jazz [CD 1)
DYEAR=2009
DGENRE=Jazz
TTITLE0=The Half Dozens
TTITLE1=I'm Glad There Is You
TTITLE2=Stella By Starlight
TTITLE3=Tommyhawk
TTITLE4=Little Man, You've Had A Busy Day
TTITLE5=Dot's Groovy
TTITLE6=You Don't Know What Love Is
TTITLE7=I'm Thru With Love
TTITLE8=Love Walked In
TTITLE9=You Better Go Now
TTITLE10=I Married An Angel
TTITLE11=Love
TTITLE12=I Love You
TTITLE13=What A Differene A Day Made
TTITLE14=Why Shouldn't I?
TTITLE15=A Little Duet For Zoot And Chet
TTITLE16=The Wind
TTITLE17=Trickleydidlier
EXTD=YEAR: 2009
EXTT0=
EXTT1=
EXTT2=
EXTT3=
EXTT4=
EXTT5=
EXTT6=
EXTT7=
EXTT8=
EXTT9=
EXTT10=
EXTT11=
EXTT12=
EXTT13=
EXTT14=
EXTT15=
EXTT16=
EXTT17=
PLAYORDER=
